<svg width="17" height="15" viewBox="0 0 17 15" fill="none" xmlns="http://www.w3.org/2000/svg">
<path d="M8.5 15C8.25798 15 8.02465 14.913 7.84281 14.7551C7.15605 14.1595 6.49393 13.5998 5.90977 13.1062L5.90678 13.1036C4.1941 11.6561 2.71513 10.406 1.6861 9.17466C0.535789 7.79804 0 6.49281 0 5.06693C0 3.68157 0.478981 2.40348 1.34862 1.46794C2.22863 0.521344 3.43613 0 4.74908 0C5.73039 0 6.62908 0.307687 7.42012 0.914443C7.81934 1.22071 8.1812 1.59555 8.5 2.03277C8.81893 1.59555 9.18066 1.22071 9.58001 0.914443C10.371 0.307687 11.2697 0 12.251 0C13.5639 0 14.7715 0.521344 15.6515 1.46794C16.5211 2.40348 17 3.68157 17 5.06693C17 6.49281 16.4643 7.79804 15.314 9.17453C14.285 10.406 12.8062 11.656 11.0937 13.1033C10.5085 13.5978 9.84537 14.1584 9.15706 14.7553C8.97535 14.913 8.74189 15 8.5 15Z" fill="#D2DBE4"/>
</svg>
