<svg width="11" height="11" viewBox="0 0 11 11" fill="none" xmlns="http://www.w3.org/2000/svg">
<path d="M5.5 0C2.4673 0 0 2.4673 0 5.5C0 8.5327 2.4673 11 5.5 11C8.5327 11 11 8.5327 11 5.5C11 2.4673 8.5327 0 5.5 0ZM8.35322 5.65143L4.31988 8.40143C4.2889 8.42252 4.25278 8.43333 4.21667 8.43333C4.18733 8.43333 4.15782 8.42637 4.13105 8.41207C4.07092 8.38035 4.03333 8.31802 4.03333 8.25V2.75C4.03333 2.68198 4.07092 2.61965 4.13105 2.58793C4.19118 2.55603 4.26378 2.56043 4.32007 2.59857L8.3534 5.34857C8.40327 5.38267 8.43333 5.43932 8.43333 5.5C8.43333 5.56068 8.40327 5.61733 8.35322 5.65143Z" fill="white"/>
<path d="M5.5 0C2.4673 0 0 2.4673 0 5.5C0 8.5327 2.4673 11 5.5 11C8.5327 11 11 8.5327 11 5.5C11 2.4673 8.5327 0 5.5 0ZM8.35322 5.65143L4.31988 8.40143C4.2889 8.42252 4.25278 8.43333 4.21667 8.43333C4.18733 8.43333 4.15782 8.42637 4.13105 8.41207C4.07092 8.38035 4.03333 8.31802 4.03333 8.25V2.75C4.03333 2.68198 4.07092 2.61965 4.13105 2.58793C4.19118 2.55603 4.26378 2.56043 4.32007 2.59857L8.3534 5.34857C8.40327 5.38267 8.43333 5.43932 8.43333 5.5C8.43333 5.56068 8.40327 5.61733 8.35322 5.65143Z" fill="#F78000"/>
<path d="M5.5 0C2.4673 0 0 2.4673 0 5.5C0 8.5327 2.4673 11 5.5 11C8.5327 11 11 8.5327 11 5.5C11 2.4673 8.5327 0 5.5 0ZM8.35322 5.65143L4.31988 8.40143C4.2889 8.42252 4.25278 8.43333 4.21667 8.43333C4.18733 8.43333 4.15782 8.42637 4.13105 8.41207C4.07092 8.38035 4.03333 8.31802 4.03333 8.25V2.75C4.03333 2.68198 4.07092 2.61965 4.13105 2.58793C4.19118 2.55603 4.26378 2.56043 4.32007 2.59857L8.3534 5.34857C8.40327 5.38267 8.43333 5.43932 8.43333 5.5C8.43333 5.56068 8.40327 5.61733 8.35322 5.65143Z" fill="url(#paint0_linear)"/>
<defs>
<linearGradient id="paint0_linear" x1="-6.29762e-10" y1="5.7973" x2="11.0001" y2="5.79058" gradientUnits="userSpaceOnUse">
<stop stop-color="#FF8A00"/>
<stop offset="1" stop-color="#FC880D"/>
</linearGradient>
</defs>
</svg>
