<svg width="11" height="11" viewBox="0 0 11 11" fill="none" xmlns="http://www.w3.org/2000/svg">
<path d="M10.5214 3.8375L7.49216 3.55106C7.3012 3.5337 7.13619 3.41219 7.05816 3.22991L5.97317 0.599909C5.79957 0.165916 5.18321 0.165916 5.00961 0.599909L3.9333 3.22991C3.86386 3.41219 3.69026 3.5337 3.4993 3.55106L0.470001 3.8375C0.0186443 3.8809 -0.163634 4.44509 0.174883 4.74889L2.45771 6.75394C2.60527 6.88413 2.66603 7.07509 2.62263 7.26605L1.93691 10.0782C1.83275 10.521 2.31015 10.8855 2.70943 10.6512L5.23529 9.16685C5.40021 9.07137 5.59984 9.07137 5.76476 9.16685L8.29071 10.6512C8.68999 10.8855 9.16739 10.5297 9.06314 10.0782L8.3861 7.26605C8.34271 7.07509 8.40347 6.88413 8.55102 6.75394L10.8338 4.74889C11.1637 4.44509 10.9727 3.8809 10.5214 3.8375Z" fill="#FE8300"/>
</svg>
